<svg width="156" height="156" viewBox="0 0 156 156" fill="none" xmlns="http://www.w3.org/2000/svg">
<g clip-path="url(#clip0_13_66)">
<mask id="mask0_13_66" style="mask-type:luminance" maskUnits="userSpaceOnUse" x="0" y="0" width="156" height="156">
<path d="M156 78C156 34.9218 121.078 0 78 0C34.9218 0 0 34.9218 0 78C0 121.078 34.9218 156 78 156C121.078 156 156 121.078 156 78Z" fill="white"/>
</mask>
<g mask="url(#mask0_13_66)">
<path d="M156 0H0V156H156V0Z" fill="#405059"/>
<path d="M78.798 22.6269C36.2502 29.3658 7.2213 69.3207 13.9602 111.869C20.6991 154.416 60.654 183.445 103.202 176.706C145.75 169.967 174.779 130.013 168.04 87.4647C161.301 44.9169 121.346 15.888 78.798 22.6269Z" fill="#EDD75A"/>
<path d="M34.7456 87.0441C34.8208 91.3532 37.1753 95.446 41.2912 98.4221C45.4071 101.398 50.9471 103.014 56.6926 102.913C62.4381 102.813 67.9183 101.005 71.9278 97.8873C75.9373 94.7694 78.1476 90.5969 78.0723 86.2878" fill="black"/>
<path d="M40.9421 69.6C40.9003 67.2071 39.4116 65.2927 37.6169 65.324C35.8223 65.3553 34.4013 67.3205 34.4431 69.7134C34.4848 72.1063 35.9735 74.0207 37.7682 73.9894C39.5628 73.958 40.9838 71.9928 40.9421 69.6Z" fill="black"/>
<path d="M75.6034 68.995C75.5617 66.6021 74.073 64.6877 72.2783 64.719C70.4837 64.7504 69.0627 66.7156 69.1044 69.1084C69.1462 71.5013 70.6349 73.4157 72.4296 73.3844C74.2242 73.3531 75.6452 71.3879 75.6034 68.995Z" fill="black"/>
</g>
</g>
<defs>
<clipPath id="clip0_13_66">
<rect width="156" height="156" fill="white"/>
</clipPath>
</defs>
</svg>
